<svg width="40" height="40" viewBox="0 0 40 40" fill="none" xmlns="http://www.w3.org/2000/svg">
  <circle cx="20" cy="20" r="20" fill="#1E1E2A" />
  <circle cx="20" cy="20" r="18" fill="#FF006E" fill-opacity="0.2" />
  <circle cx="20" cy="20" r="16" fill="#FF006E" fill-opacity="0.3" />
  <path d="M20 10C14.477 10 10 14.477 10 20C10 25.523 14.477 30 20 30C25.523 30 30 25.523 30 20C30 14.477 25.523 10 20 10ZM20 28C15.582 28 12 24.418 12 20C12 15.582 15.582 12 20 12C24.418 12 28 15.582 28 20C28 24.418 24.418 28 20 28Z" fill="#FF006E" />
  <path d="M23 15H17C16.448 15 16 15.448 16 16C16 16.552 16.448 17 17 17H19V23H17C16.448 23 16 23.448 16 24C16 24.552 16.448 25 17 25H23C23.552 25 24 24.552 24 24C24 23.448 23.552 23 23 23H21V21H22C22.552 21 23 20.552 23 20C23 19.448 22.552 19 22 19H21V17H23C23.552 17 24 16.552 24 16C24 15.448 23.552 15 23 15Z" fill="#FF006E" />
</svg>
